<?xml version="1.0" encoding="UTF-8" standalone="no"?>
<svg width="952px" height="625px" viewBox="0 0 952 625" version="1.1" xmlns="http://www.w3.org/2000/svg" xmlns:xlink="http://www.w3.org/1999/xlink" xmlns:sketch="http://www.bohemiancoding.com/sketch/ns">
    <!-- Generator: Sketch 3.0.2 (7799) - http://www.bohemiancoding.com/sketch -->
    <title>illustration</title>
    <description>Created with Sketch.</description>
    <defs>
        <path id="path-1" d="M-0.311,10.07 L-0.269,3.486 L7.228,0.304 L7.186,6.888 L-0.311,10.07"></path>
        <path d="M28.909,0.648 L34.116,4.58 L31.95,7.448 L31.962,7.457 L30.606,9.251 L30.594,9.242 L28.428,12.11 L14.979,1.952 C6.424,5.511 0.409,13.95 0.409,23.792 L47.695,23.792 C47.695,12.4 39.637,2.888 28.909,0.648 L28.909,0.648 Z M22.363,0.208 C21.292,0.284 20.237,0.431 19.21,0.645 L30.594,9.242 L31.95,7.448 L22.363,0.208 L22.363,0.208 Z" id="path-3"></path>
        <path id="path-5" d="M90.2670122,-0.180216616 L0.38,6.87 L35.427,73.102 L125.324,66.051 L90.2771339,-0.180747028 L90.2670122,-0.180216616"></path>
    </defs>
    <g id="Page-1" stroke="none" stroke-width="1" fill="none" fill-rule="evenodd" sketch:type="MSPage">
        <g id="Teknokent-Campaign" sketch:type="MSArtboardGroup" transform="translate(-245.000000, -451.000000)">
            <g id="Oval-1-+-Oval-2-+-illustration" sketch:type="MSLayerGroup" transform="translate(153.000000, 382.000000)">
                <g id="illustration" transform="translate(92.000000, 70.000000)">
                    <path d="M83.27,526 L0.02,624 L935.592,624 L873.997,526 L83.27,526 Z" id="Fill-1" fill="#DBCEC5" sketch:type="MSShapeGroup"></path>
                    <path d="M277.222,553.501 C277.762,558.996 281.961,558.005 286.9,558.005 L398.02,558.005 C402.959,558.005 407.159,558.996 407.699,553.501 L277.222,553.501" id="Fill-2" fill="#BEBEBF" sketch:type="MSShapeGroup"></path>
                    <path d="M406.646,551.106 L385.901,530.484 C380.849,524.436 381.525,503.105 381.62,500.297 L303.44,500.297 C303.535,503.105 304.21,524.436 299.159,530.484 L278.414,551.106 C274.311,555.757 281.925,555.757 287.599,555.757 L397.46,555.757 C403.134,555.757 410.748,555.757 406.646,551.106" id="Fill-3" fill="#D6D6D5" sketch:type="MSShapeGroup"></path>
                    <path d="M518.57,490.588 C518.57,496.645 513.875,501.556 508.086,501.556 L176.974,501.556 C171.184,501.556 166.49,496.645 166.49,490.588 L166.49,270.295 C166.49,264.237 171.184,259.326 176.974,259.326 L508.086,259.326 C513.875,259.326 518.57,264.237 518.57,270.295 L518.57,490.588" id="Fill-4" fill="#F2F2F2" sketch:type="MSShapeGroup"></path>
                    <path d="M508.086,259.326 L176.974,259.326 C171.184,259.326 166.49,264.415 166.49,270.694 L166.49,462.424 L518.57,462.424 L518.57,270.694 C518.57,264.415 513.875,259.326 508.086,259.326" id="Fill-5" fill="#646464" sketch:type="MSShapeGroup"></path>
                    <path d="M179.783,272.76 L504.997,272.76 L504.997,447.401 L179.783,447.401 L179.783,272.76 Z" id="Fill-6" fill="#4D4D4D" sketch:type="MSShapeGroup"></path>
                    <path d="M350.741,484.519 C350.741,479.94 347.028,476.227 342.449,476.227 C337.869,476.227 334.157,479.94 334.157,484.519 C334.157,489.099 337.869,492.812 342.449,492.812 C347.028,492.812 350.741,489.099 350.741,484.519" id="Fill-7" fill="#4D4D4D" sketch:type="MSShapeGroup"></path>
                    <path d="M415,187 L491,187 L491,386 L415,386 L415,187 Z" id="Fill-8" fill="#FFFFFF" sketch:type="MSShapeGroup"></path>
                    <path d="M620.5,430.289 L640.106,442.274 L629.834,459.079 L610.227,447.095 L620.5,430.289" id="Fill-9" fill="#3F3F3F" sketch:type="MSShapeGroup"></path>
                    <path d="M617.255,421.223 L649.134,440.709 L644.662,448.025 L612.783,428.54 L617.255,421.223" id="Fill-10" fill="#3F3F3F" sketch:type="MSShapeGroup"></path>
                    <path d="M670.342,340.672 L697.654,357.412 L647.005,440.046 L619.694,423.307 L670.342,340.672" id="Fill-11" fill="#3F3F3F" sketch:type="MSShapeGroup"></path>
                    <path d="M671.892,334.143 L703.455,353.435 L700.044,359.016 L668.481,339.723 L671.892,334.143" id="Fill-12" fill="#3F3F3F" sketch:type="MSShapeGroup"></path>
                    <path d="M693.842,315.595 L709.24,325.006 L693.703,350.424 L678.306,341.012 L693.842,315.595" id="Fill-13" fill="#3F3F3F" sketch:type="MSShapeGroup"></path>
                    <path d="M696.228,309.081 L714.132,320.025 L709.836,327.053 L691.932,316.11 L696.228,309.081" id="Fill-14" fill="#3F3F3F" sketch:type="MSShapeGroup"></path>
                    <path d="M668.374,401.466 C668.374,394.629 673.917,389.087 680.753,389.087 C687.59,389.087 693.132,394.629 693.132,401.466 C693.132,408.303 687.59,413.845 680.753,413.845 C673.917,413.845 668.374,408.303 668.374,401.466" id="Fill-15" fill="#3F3F3F" sketch:type="MSShapeGroup"></path>
                    <path d="M648.439,494.193 L569.359,447.984 L563.286,458.377 L581.354,468.935 L577.239,475.585 L643.309,514.076 L648.439,494.193" id="Fill-16" fill="#3F3F3F" sketch:type="MSShapeGroup"></path>
                    <path d="M645.619,494 L677.352,494 L691.515,544 L634.677,544 L645.619,494" id="Fill-17" fill="#3F3F3F" sketch:type="MSShapeGroup"></path>
                    <path d="M547,543 L717,543 L717,564 L547,564 L547,543 Z" id="Fill-18" fill="#3F3F3F" sketch:type="MSShapeGroup"></path>
                    <path d="M693.366,406.433 C691.826,410.341 688.528,413.356 684.442,414.51 L725.24,459.245 L671.808,508.389 L679.919,517.282 L741.981,460.2 L742.211,459.991 L693.366,406.433" id="Fill-19" fill="#3F3F3F" sketch:type="MSShapeGroup"></path>
                    <path d="M469,624 L548.232,624 L589.641,330.32 L677.602,465.157 L850,400.584 L850,363.38 L707.468,390.928 L619.31,227.147 L511.887,181.695 L470.492,268.204 L470.84,623.63" id="Fill-20" fill="#FFFFFF" sketch:type="MSShapeGroup"></path>
                    <path d="M511,328 L566,328 L566,341 L511,341 L511,328 Z" id="Fill-21" fill="#E2E2E2" sketch:type="MSShapeGroup"></path>
                    <path d="M553.23,402.225 L548.904,402.225 C547.736,402.225 546.789,401.014 546.789,399.52 L546.789,320.674 C546.789,319.18 547.736,317.969 548.904,317.969 L553.23,317.969 C554.398,317.969 555.345,319.18 555.345,320.674 L555.345,399.52 C555.345,401.014 554.398,402.225 553.23,402.225" id="Fill-22" fill="#AAAAAA" sketch:type="MSShapeGroup"></path>
                    <path d="M541.093,375.015 L541.147,375.015 C542.643,375.015 543.855,373.802 543.855,372.307 L543.855,320.823 C543.855,319.327 542.643,318.115 541.147,318.115 L541.093,318.115 C539.597,318.115 538.384,319.327 538.384,320.823 L538.384,372.307 C538.384,373.802 539.597,375.015 541.093,375.015" id="Fill-23" fill="#6D6D6D" sketch:type="MSShapeGroup"></path>
                    <path d="M514.405,169.637 L479.876,229.503 L469.995,202.539 L514.405,169.637" id="Fill-24" fill="#F4F4F4" sketch:type="MSShapeGroup"></path>
                    <path d="M428.414,170.731 L462.942,230.597 L472.824,203.633 L428.414,170.731" id="Fill-25" fill="#F4F4F4" sketch:type="MSShapeGroup"></path>
                    <path d="M470.907,248.354 L446.707,336.941 L470.731,514.384 L470.907,248.354" id="Fill-26" fill="#34434F" sketch:type="MSShapeGroup"></path>
                    <path d="M96.313,535 L159.779,535 L92.916,604 L23.04,604 L96.313,535" id="Fill-27" fill="#FFFFFF" sketch:type="MSShapeGroup"></path>
                    <path d="M88.653,548.134 L131.329,548.134 C131.812,548.134 131.812,547.384 131.329,547.384 L88.653,547.384 C88.17,547.384 88.17,548.134 88.653,548.134" id="Fill-28" fill="#E2E2E2" sketch:type="MSShapeGroup"></path>
                    <path d="M84.276,553.605 L126.952,553.605 C127.435,553.605 127.435,552.855 126.952,552.855 L84.276,552.855 C83.793,552.855 83.793,553.605 84.276,553.605" id="Fill-29" fill="#E2E2E2" sketch:type="MSShapeGroup"></path>
                    <path d="M77.711,559.076 L120.386,559.076 C120.87,559.076 120.87,558.326 120.386,558.326 L77.711,558.326 C77.227,558.326 77.227,559.076 77.711,559.076" id="Fill-30" fill="#E2E2E2" sketch:type="MSShapeGroup"></path>
                    <path d="M73.334,564.547 L116.009,564.547 C116.493,564.547 116.493,563.797 116.009,563.797 L73.334,563.797 C72.85,563.797 72.85,564.547 73.334,564.547" id="Fill-31" fill="#E2E2E2" sketch:type="MSShapeGroup"></path>
                    <path d="M48.167,590.809 L90.842,590.809 C91.325,590.809 91.325,590.059 90.842,590.059 L48.167,590.059 C47.683,590.059 47.683,590.809 48.167,590.809" id="Fill-32" fill="#E2E2E2" sketch:type="MSShapeGroup"></path>
                    <path d="M42.695,595.186 L85.371,595.186 C85.854,595.186 85.854,594.436 85.371,594.436 L42.695,594.436 C42.212,594.436 42.212,595.186 42.695,595.186" id="Fill-33" fill="#E2E2E2" sketch:type="MSShapeGroup"></path>
                    <path d="M93.03,544.851 L107.245,544.851 C107.729,544.851 107.729,544.101 107.245,544.101 L93.03,544.101 C92.547,544.101 92.547,544.851 93.03,544.851" id="Fill-34" fill="#E2E2E2" sketch:type="MSShapeGroup"></path>
                    <g id="Group-37" transform="translate(97.000000, 531.000000)">
                        <mask id="mask-2" sketch:name="Clip 36" fill="white">
                            <use xlink:href="#path-1"></use>
                        </mask>
                        <g id="Clip-36"></g>
                        <path d="M4.46,4.291 L4.437,4.301 L4.452,4.303 L4.46,4.291 M5.536,1.022 L5.285,1.158 L5.003,1.325 L4.696,1.584 L4.586,1.684 L4.437,1.847 L4.295,2.019 L-0.082,8.449 L-0.2,8.646 L-0.263,8.797 L-0.304,8.949 L-0.305,9.215 L-0.236,9.397 L-0.128,9.545 L0.051,9.64 L0.278,9.685 L0.676,9.651 L0.849,9.578 L1.052,9.486 L1.233,9.386 L1.445,9.231 L1.68,9.031 L1.83,8.844 L1.964,8.699 L4.913,4.364 L4.913,4.346 L4.452,4.303 L1.511,8.62 L1.377,8.771 L1.212,8.935 L1.126,8.996 L1,9.061 L0.836,9.131 L0.664,9.168 L0.484,9.162 L0.367,9.118 L0.29,9.015 L0.252,8.884 L0.291,8.75 L0.308,8.655 L0.371,8.528 L4.74,2.107 L4.795,2.043 L5.015,1.82 L5.188,1.687 L5.376,1.572 L5.588,1.453 L5.815,1.386 L6.003,1.33 L6.128,1.336 L6.198,1.353 L6.377,1.4 L6.533,1.511 L6.618,1.634 L6.641,1.724 L6.632,1.839 L6.584,2.025 L6.544,2.124 L6.512,2.22 L6.386,2.426 L5.369,3.911 L5.61,4.015 L5.79,4.044 L7.004,2.27 L7.02,2.228 L7.163,1.932 L7.203,1.667 L7.221,1.437 L7.167,1.259 L7.051,1.097 L6.934,0.964 L6.755,0.899 L6.498,0.825 L6.217,0.815 L5.841,0.91 L5.536,1.022" id="Fill-35" fill="#E2E2E2" sketch:type="MSShapeGroup" mask="url(#mask-2)"></path>
                    </g>
                    <path d="M112.963,567.808 L46.401,517.538 L40.714,525.068 L70.892,547.86 L86.913,555.456 L42.892,522.21 L44.247,520.415 L96.94,560.211 L112.963,567.808 M137.428,598.11 L143.116,590.58 L112.963,567.808 L96.94,560.211 L140.962,593.457 L139.606,595.251 L86.913,555.456 L70.892,547.86 L137.428,598.11" id="Fill-38" fill="#F4CE7D" sketch:type="MSShapeGroup"></path>
                    <path d="M144.908,438.471 L139.17,430.98 L89.105,469.323 L90.145,473.054 L141.356,433.833 L142.723,435.617 L90.795,475.388 L91.835,479.118 L144.908,438.471 L144.908,438.471 Z M89.105,469.323 L36.032,509.971 L41.77,517.462 L91.835,479.118 L90.795,475.388 L39.584,514.609 L38.218,512.824 L90.145,473.054 L89.105,469.323 L89.105,469.323 Z" id="Fill-39" fill="#F4CE7D" sketch:type="MSShapeGroup"></path>
                    <path d="M162.881,454.484 C167.798,453.113 170.689,447.985 169.319,443.069 C167.948,438.153 162.821,435.261 157.904,436.632 C152.988,438.002 150.096,443.13 151.467,448.046 C152.837,452.962 157.965,455.854 162.881,454.484" id="Fill-40" fill="#F4CE7D" sketch:type="MSShapeGroup"></path>
                    <path d="M121.736,411.224 C123.299,410.788 124.218,409.158 123.782,407.596 C123.347,406.033 121.717,405.114 120.154,405.55 C118.592,405.985 117.672,407.615 118.108,409.178 C118.544,410.74 120.174,411.66 121.736,411.224" id="Fill-41" fill="#F4CE7D" sketch:type="MSShapeGroup"></path>
                    <path d="M120.945,408.386 C123.316,405.871 125.974,403.754 128.854,402.023 L144.76,413.249 C156.479,409.507 171.313,413.093 182.786,423.502 C175.383,430.247 167.86,437.634 160.393,445.558 C152.926,453.482 145.999,461.43 139.706,469.221 C128.634,458.385 124.174,443.792 127.213,431.871 L115.063,416.659 C116.62,413.681 118.576,410.902 120.945,408.386" id="Fill-42" fill="#EBEBEB" sketch:type="MSShapeGroup"></path>
                    <path d="M27.751,519.837 C25.854,514.689 28.491,508.979 33.639,507.083 C38.786,505.187 44.497,507.823 46.392,512.971 C48.288,518.119 45.652,523.829 40.504,525.725 C35.356,527.621 29.646,524.984 27.751,519.837" id="Fill-43" fill="#F4CE7D" sketch:type="MSShapeGroup"></path>
                    <path d="M125.091,429.213 C127.33,422.599 135.555,414.285 142.1,411.372 L144.76,413.249 C138.24,415.454 128.264,425.512 127.213,431.871 L125.091,429.213" id="Fill-44" fill="#F4CE7D" sketch:type="MSShapeGroup"></path>
                    <path d="M43.703,519.548 C45.435,515.895 43.868,511.503 40.215,509.771 C36.562,508.039 32.171,509.606 30.439,513.259 C28.707,516.912 30.273,521.304 33.926,523.036 C37.579,524.768 41.971,523.201 43.703,519.548" id="Fill-45" fill="#EBEBEB" sketch:type="MSShapeGroup"></path>
                    <g id="Group-48" transform="translate(109.000000, 586.000000)">
                        <mask id="mask-4" sketch:name="Clip 47" fill="white">
                            <use xlink:href="#path-3"></use>
                        </mask>
                        <g id="Clip-47"></g>
                        <path d="M0.409,0.208 L47.695,0.208 L47.695,23.792 L0.409,23.792 L0.409,0.208 Z" id="Fill-46" fill="#F6D38D" sketch:type="MSShapeGroup" mask="url(#mask-4)"></path>
                    </g>
                    <path d="M140.95,593.448 L139.594,595.242 L139.606,595.251 L140.962,593.457 L140.95,593.448 M128.21,586.645 C126.745,586.95 125.331,587.39 123.979,587.952 L137.428,598.11 L139.594,595.242 L128.21,586.645 M133.052,586.148 C132.484,586.148 131.922,586.169 131.363,586.208 L140.95,593.448 L143.116,590.58 L137.909,586.648 C136.342,586.321 134.717,586.148 133.052,586.148" id="Fill-49" fill="#F4CE7D" sketch:type="MSShapeGroup"></path>
                    <path d="M850.5,369.529 L865.244,354.84 L888.298,343.692 L912.534,384.378 L882.359,402.478 L850.5,400.016 L850.5,369.529" id="Fill-50" fill="#F1EBDF" sketch:type="MSShapeGroup"></path>
                    <path d="M850.5,369.529 L850.853,369.883 L865.538,355.254 L888.103,344.342 L911.85,384.205 L882.239,401.967 L851,399.553 L851,369.529 L850.5,369.529 L850.853,369.883 L850.5,369.529 L850,369.529 L850,400.479 L882.479,402.989 L913.219,384.55 L888.492,343.043 L864.951,354.426 L850,369.321 L850,369.529 L850.5,369.529" id="Fill-51" fill="#89796F" sketch:type="MSShapeGroup"></path>
                    <path d="M481.894,235.383 L471.636,249.445 L461.389,235.183 L471.636,208.119 L481.894,235.383" id="Fill-52" fill="#34434F" sketch:type="MSShapeGroup"></path>
                    <path d="M283.799,424.041 L356.726,227 L397.724,227 L370.915,420.54 L321.4,474.795 L305.786,478.262 L270.251,441.447 L318.708,230.299 L428.626,177.283 L471,516.997 L471,623 L397.724,623 L365.26,427.248" id="Fill-53" fill="#3B97D2" sketch:type="MSShapeGroup"></path>
                    <path d="M429.263,178.49 L379.815,254.94 L426.124,302 L379.72,302 L470.731,515.697 L429.263,178.49" id="Fill-54" fill="#27729B" sketch:type="MSShapeGroup"></path>
                    <path d="M283.799,423.744 L356.726,227.5 L397.724,227.5 L370.915,420.243 L321.4,474.099 L305.786,477.367 L270.251,441.088" id="Fill-55" fill="#3B97D2" sketch:type="MSShapeGroup"></path>
                    <path d="M284.268,423.918 L357.073,228 L397.15,228 L370.441,420.02 L321.141,473.643 L305.952,476.821 L270.608,440.738 L269.893,441.437 L305.621,477.912 L321.66,474.556 L371.389,420.467 L398.298,227 L356.378,227 L283.33,423.57 L284.268,423.919 L284.268,423.918" id="Fill-56" fill="#2C7096" sketch:type="MSShapeGroup"></path>
                    <path d="M555.162,76.935 C555.162,99.965 536.493,118.635 513.463,118.635 C490.433,118.635 471.763,99.965 471.763,76.935 C471.763,53.905 490.433,35.235 513.463,35.235 C536.493,35.235 555.162,53.905 555.162,76.935" id="Fill-57" fill="#3F3F3F" sketch:type="MSShapeGroup"></path>
                    <path d="M472,68.181 C472,91.211 453.331,109.881 430.301,109.881 C407.271,109.881 388.601,91.211 388.601,68.181 C388.601,45.151 407.271,26.481 430.301,26.481 C453.331,26.481 472,45.151 472,68.181" id="Fill-58" fill="#3F3F3F" sketch:type="MSShapeGroup"></path>
                    <path d="M461.058,90.066 C461.058,113.096 442.389,131.766 419.359,131.766 C396.328,131.766 377.658,113.096 377.658,90.066 C377.658,67.036 396.328,48.366 419.359,48.366 C442.389,48.366 461.058,67.036 461.058,90.066" id="Fill-59" fill="#3F3F3F" sketch:type="MSShapeGroup"></path>
                    <path d="M539.068,70.666 L539.115,66.863 C538.561,30.502 508.251,1.188 470.92,1.188 C433.242,1.188 402.699,31.042 402.699,67.87 C402.699,72.629 403.218,77.267 404.188,81.744 L411.306,148.076 C411.759,152.295 413.545,156.259 416.405,159.394 L455.909,202.917 C459.674,206.667 464.771,209 470.086,209 L470.25,209 C475.358,209 480.274,206.827 483.999,203.33 L525.901,159.548 C528.99,156.329 530.911,152.109 531.356,147.67 L538.302,78.341 C538.705,75.836 538.959,73.256 539.068,70.666" id="Fill-60" fill="#F1EBDF" sketch:type="MSShapeGroup"></path>
                    <path d="M486.469,153 L453.52,153 C448.719,153 444,156.796 444,161.125 L444,186.077 C444,198.486 455.982,209 469.743,209 L470.246,209 C484.007,209 495,198.486 495,186.077 L495,161.125 C495,156.796 491.27,153 486.469,153 L486.469,153 Z M487,167.125 C487,169.818 484.817,172 482.125,172 L457.875,172 C455.183,172 453,169.818 453,167.125 L453,166.875 C453,164.182 455.183,162 457.875,162 L482.125,162 C484.817,162 487,164.182 487,166.875 L487,167.125 L487,167.125 Z" id="Fill-61" fill="#89796F" sketch:type="MSShapeGroup"></path>
                    <path d="M471.089,96.847 C469.452,96.727 467.666,96.357 465.075,95.728 C462.246,95.041 458.599,94.064 454.17,92.697 C442.361,89.05 418.742,88.876 400.16,93.217 L400.68,101.553 C400.68,101.553 404.154,100.338 405.891,111.279 C407.627,122.22 409.191,137.503 434.372,137.85 C459.554,138.196 464.764,115.273 466.153,111.973 C467.543,108.674 467.89,106.243 469.453,105.547 C470.026,105.293 470.563,105.121 471.089,105.013 L471.089,96.847 M403.111,97.124 C403.111,96.501 404.746,95.913 406.759,95.81 C408.772,95.707 410.406,96.129 410.406,96.752 C410.406,97.376 408.772,97.965 406.759,98.068 C404.746,98.171 403.111,97.749 403.111,97.124 M459.206,116.142 C454.078,131.87 442.517,135.256 433.261,134.94 C424.392,134.639 417.956,132.015 413.469,124.036 C410.21,118.243 408.426,110.522 410.927,103.463 C412.752,98.314 417.735,95.839 422.888,94.7 C430.67,92.979 445.127,93.279 452.392,96.635 C458.291,99.359 462.87,104.908 459.206,116.142" id="Fill-62" fill="#3F3F3F" sketch:type="MSShapeGroup"></path>
                    <path d="M538.846,72.751 C542.453,64.943 543.818,55.884 542.704,46.412 C540.843,30.572 528.159,20.199 514.365,15.382 C502.567,5.837 487.434,0.093 470.92,0.093 C452.941,0.093 436.596,6.902 424.409,18.013 C423.855,21.422 423.631,24.943 423.793,28.546 C424.967,54.635 446.21,75.834 472.302,76.955 C482.149,77.378 492.157,72.489 506.357,67.869 C520.557,63.25 527.692,72.851 528.406,79.202 C528.816,81.654 526.941,87.16 525.268,89.156 C531.051,85.062 535.495,79.706 538.498,73.527 L538.762,73.684 C538.794,73.374 538.817,73.062 538.846,72.751" id="Fill-63" fill="#3F3F3F" sketch:type="MSShapeGroup"></path>
                    <path d="M538.846,72.751 L539.3,72.961 C542.12,66.855 543.582,60.001 543.582,52.791 C543.582,50.672 543.456,48.523 543.201,46.354 C542.257,38.313 538.558,31.651 533.364,26.412 C528.17,21.171 521.486,17.34 514.53,14.91 L514.365,15.382 L514.679,14.993 C502.796,5.378 487.55,-0.407 470.92,-0.407 C452.813,-0.407 436.348,6.452 424.073,17.643 L423.944,17.76 L423.916,17.932 C423.476,20.641 423.242,23.42 423.242,26.253 C423.242,27.021 423.259,27.793 423.294,28.568 C424.481,54.92 445.926,76.32 472.28,77.454 C472.688,77.472 473.096,77.481 473.504,77.481 C483.142,77.469 492.921,72.758 506.512,68.344 C509.066,67.513 511.375,67.155 513.446,67.154 C518.068,67.157 521.52,68.932 523.918,71.335 C526.314,73.737 527.634,76.788 527.909,79.258 L527.91,79.271 L527.912,79.285 C527.945,79.482 527.963,79.715 527.963,79.975 C527.965,81.22 527.559,83.037 526.962,84.73 C526.369,86.425 525.572,88.021 524.885,88.835 L522.401,91.798 L525.557,89.564 C531.41,85.421 535.91,79.997 538.948,73.746 L538.498,73.527 L538.243,73.957 L538.506,74.114 L539.178,74.513 L539.259,73.736 C539.292,73.416 539.316,73.102 539.344,72.797 L538.846,72.751 L539.3,72.961 L538.846,72.751 L538.348,72.706 C538.319,73.022 538.296,73.332 538.265,73.632 L538.762,73.684 L539.017,73.254 L538.754,73.097 L538.287,72.819 L538.049,73.309 C535.08,79.415 530.693,84.703 524.979,88.748 L525.268,89.156 L525.651,89.477 C526.478,88.484 527.279,86.835 527.905,85.062 C528.526,83.289 528.96,81.418 528.963,79.975 C528.963,79.672 528.943,79.386 528.899,79.12 L528.406,79.202 L528.902,79.147 C528.594,76.428 527.188,73.205 524.626,70.63 C522.068,68.056 518.331,66.152 513.446,66.154 C511.259,66.154 508.844,66.534 506.202,67.394 C492.548,71.843 482.798,76.491 473.504,76.481 C473.11,76.481 472.716,76.472 472.323,76.455 C446.494,75.348 425.452,54.351 424.293,28.524 C424.258,27.763 424.242,27.006 424.242,26.253 C424.242,23.474 424.471,20.75 424.903,18.093 L424.409,18.013 L424.746,18.382 C436.844,7.353 453.068,0.594 470.92,0.593 C487.317,0.594 502.338,6.295 514.05,15.77 L514.118,15.825 L514.2,15.854 C521.037,18.241 527.592,22.006 532.654,27.116 C537.716,32.227 541.29,38.671 542.208,46.47 C542.458,48.602 542.582,50.712 542.582,52.791 C542.582,59.866 541.147,66.576 538.392,72.542 L538.356,72.62 L538.348,72.706 L538.846,72.751" id="Fill-64" fill="#40413F" sketch:type="MSShapeGroup"></path>
                    <path d="M401.693,64.473 C416.894,55.72 427.137,39.321 427.137,20.519 C427.137,19.006 427.058,17.512 426.928,16.032 C412.325,27.592 402.696,44.919 401.693,64.473" id="Fill-65" fill="#3F403F" sketch:type="MSShapeGroup"></path>
                    <path d="M401.693,64.473 L401.942,64.907 C417.293,56.068 427.637,39.506 427.637,20.519 C427.637,18.989 427.557,17.48 427.426,15.989 L427.345,15.065 L426.618,15.64 C411.909,27.284 402.204,44.743 401.193,64.448 L401.146,65.365 L401.942,64.907 L401.693,64.473 L402.192,64.499 C403.188,45.094 412.742,27.901 427.239,16.424 L426.928,16.032 L426.43,16.076 C426.559,17.544 426.637,19.023 426.637,20.519 C426.637,39.136 416.496,55.371 401.443,64.04 L401.693,64.473 L402.192,64.499 L401.693,64.473" id="Fill-66" fill="#3F3F3F" sketch:type="MSShapeGroup"></path>
                    <path d="M513.446,67.154 C511.375,67.155 509.066,67.513 506.512,68.344 C500.355,70.344 494.982,72.404 490.048,74.061 C492.763,73.578 495.414,72.868 497.974,71.951 C504.635,69.696 510.208,68.172 514.871,67.213 C514.409,67.175 513.934,67.155 513.446,67.154" id="Fill-67" fill="#F2ECE1" sketch:type="MSShapeGroup"></path>
                    <path d="M470.92,0.593 C457.67,0.594 445.319,4.317 434.884,10.745 C433.847,13.836 433.1,17.079 432.698,20.456 C429.74,45.25 446.628,68.589 471.26,73.752 C474.696,74.472 478.116,74.817 481.478,74.817 C482.511,74.817 483.539,74.785 484.561,74.72 C490.827,72.965 497.771,70.141 506.202,67.394 C508.844,66.534 511.259,66.154 513.446,66.154 L513.457,66.154 C514.988,66.155 516.406,66.342 517.711,66.679 C521.071,66.108 523.896,65.863 526.267,65.863 C535.785,65.862 538.004,69.811 538.416,72.49 C538.528,72.246 538.638,72 538.746,71.754 C540.78,50.348 530.925,29.565 514.469,15.949 C514.38,15.917 514.29,15.885 514.2,15.854 L514.118,15.825 L514.05,15.77 C502.338,6.295 487.317,0.594 470.92,0.593" id="Fill-68" fill="#4A4A4A" sketch:type="MSShapeGroup"></path>
                    <path d="M538.478,74.079 C538.441,74.354 538.402,74.631 538.36,74.906 C538.36,74.906 538.441,74.591 538.478,74.079 M538.746,71.754 C538.638,72 538.528,72.246 538.416,72.49 C538.511,73.109 538.509,73.66 538.478,74.079 C538.583,73.303 538.672,72.529 538.746,71.754 M513.457,66.154 L513.446,66.154 C511.259,66.154 508.844,66.534 506.202,67.394 C497.771,70.141 490.827,72.965 484.561,74.72 C486.414,74.603 488.245,74.382 490.048,74.061 C494.982,72.404 500.355,70.344 506.512,68.344 C509.066,67.513 511.375,67.155 513.446,67.154 C513.934,67.155 514.409,67.175 514.871,67.213 C515.858,67.01 516.803,66.833 517.711,66.679 C516.406,66.342 514.988,66.155 513.457,66.154 M470.825,0.113 C457.743,0.113 445.334,3.927 434.928,10.617 C434.913,10.659 434.899,10.703 434.884,10.745 C445.319,4.317 457.67,0.594 470.92,0.593 C487.317,0.594 502.338,6.295 514.05,15.77 L514.118,15.825 L514.2,15.854 C514.29,15.885 514.38,15.917 514.469,15.949 C505.353,8.406 494.21,3.061 481.944,1.031 C478.205,0.412 474.488,0.113 470.825,0.113" id="Fill-69" fill="#4B4C4A" sketch:type="MSShapeGroup"></path>
                    <path d="M506.239,55.951 C506.239,55.951 493.04,60.792 485.599,60.955 C460.438,61.507 438.702,42.601 435.966,17.781 C435.922,17.389 435.901,17 435.868,16.609 L435.76,16.714 C435.437,20.002 435.439,23.375 435.817,26.803 C443.006,91.584 506.239,55.951 506.239,55.951" id="Fill-70" fill="#3F3F3F" sketch:type="MSShapeGroup"></path>
                    <path d="M398.599,67.251 C396.479,68.791 394.463,70.563 392.594,72.581 C357.301,110.744 408.85,128.57 408.85,128.57 C408.85,128.57 399.642,123.486 395.986,119.272 C383.621,105.025 384.529,82.541 398.059,67.93 C398.273,67.699 398.496,67.482 398.713,67.258 L398.599,67.251" id="Fill-71" fill="#4A4A4A" sketch:type="MSShapeGroup"></path>
                    <path d="M479.794,167.808 C479.794,167.808 474.368,168.902 469.94,168.902 C465.513,168.902 460.076,167.808 460.076,167.808 C459.477,167.808 458.993,167.323 458.993,166.725 L458.993,166.703 C458.993,166.105 459.477,165.62 460.076,165.62 C460.076,165.62 464.293,166.714 469.976,166.714 C475.658,166.714 479.794,165.62 479.794,165.62 C480.392,165.62 480.877,166.105 480.877,166.703 L480.877,166.725 C480.877,167.323 480.392,167.808 479.794,167.808" id="Fill-72" fill="#B7929B" sketch:type="MSShapeGroup"></path>
                    <path d="M441.973,113.01 C441.973,109.089 438.76,105.911 434.819,105.911 C430.878,105.911 427.674,109.089 427.674,113.01 C427.674,113.379 427.807,114.127 427.813,114.164 C428.047,115.237 428.959,116 430.102,116 L439.555,116 C440.528,116 441.437,115.457 441.809,114.621 C441.94,114.325 441.973,113.098 441.973,113.01" id="Fill-73" fill="#3F3F3F" sketch:type="MSShapeGroup"></path>
                    <path d="M474,125 L474,145.96 C474,148.131 472.379,150 470.208,150 L470.119,150 C467.949,150 466,148.131 466,145.96 L466,137 L465,137 L465,145.96 C465,148.64 467.44,151 470.119,151 L470.208,151 C472.888,151 475,148.64 475,145.96 L475,125 L474,125" id="Fill-74" fill="#89796F" sketch:type="MSShapeGroup"></path>
                    <path d="M465,145.786 C465,145.605 464.452,145.501 463.955,145.501 C462.215,145.501 460.914,146.629 460.41,148.249 C458.657,147.546 457.569,145.825 457.569,143.909 C457.569,141.329 459.938,139.23 462.517,139.23 L463,139.241 L463,138.318 L462.567,138.307 C459.478,138.307 456.855,140.82 456.855,143.909 C456.855,146.397 458.472,148.611 460.866,149.293 L461.335,149.434 L461.406,148.926 C461.65,147.476 462.492,146.424 463.962,146.424 C464.468,146.424 465,146.559 465,146.801 L465,145.786" id="Fill-75" fill="#89796F" sketch:type="MSShapeGroup"></path>
                    <path d="M475,146.247 C475,146.066 475.812,145.963 476.309,145.963 C478.049,145.963 479.482,147.09 479.986,148.71 C481.739,148.007 482.894,146.286 482.894,144.37 C482.894,141.791 480.294,139.692 477.714,139.692 C477.642,139.692 478,139.699 477,139.702 L477,138.779 C478,138.777 477.626,138.769 477.697,138.769 C480.786,138.769 483.542,141.282 483.542,144.37 C483.542,146.859 481.99,149.072 479.596,149.754 L479.161,149.895 L479.105,149.387 C478.862,147.938 477.763,146.886 476.294,146.886 C475.788,146.886 475,147.021 475,147.262 L475,146.247" id="Fill-76" fill="#89796F" sketch:type="MSShapeGroup"></path>
                    <path d="M510.91,113.01 C510.91,109.089 507.696,105.911 503.755,105.911 C499.815,105.911 496.61,109.089 496.61,113.01 C496.61,113.379 496.744,114.127 496.75,114.164 C496.983,115.237 497.896,116 499.039,116 L508.492,116 C509.465,116 510.374,115.457 510.746,114.621 C510.877,114.325 510.91,113.098 510.91,113.01" id="Fill-77" fill="#3F3F3F" sketch:type="MSShapeGroup"></path>
                    <path d="M390.251,150.486 C390.357,150.739 390.372,151.021 390.292,151.284 L389.492,153.914 L369.745,107.329 C369.511,106.778 369.77,106.142 370.322,105.91 L370.342,105.901 C370.893,105.67 371.527,105.929 371.758,106.479 L390.251,150.486" id="Fill-78" fill="#27B899" sketch:type="MSShapeGroup"></path>
                    <path d="M406.851,181.695 L417.756,148.993 L391.963,90.847 L381.685,121.667 L406.851,181.695" id="Fill-79" fill="#27B899" sketch:type="MSShapeGroup"></path>
                    <path d="M459.116,170.731 L447.206,205.037 L406.803,181.549 L418.028,149.217 L459.116,170.731" id="Fill-80" fill="#27B899" sketch:type="MSShapeGroup"></path>
                    <path d="M401.38,182.79 L412.911,150.559 L386.492,91.941 L376.214,122.761 L401.38,182.79" id="Fill-81" fill="#27B899" sketch:type="MSShapeGroup"></path>
                    <path d="M453.645,171.825 L441.735,206.131 L401.332,182.643 L412.911,150.559 L453.645,171.825" id="Fill-82" fill="#27B899" sketch:type="MSShapeGroup"></path>
                    <path d="M391.963,90.847 L386.492,91.941 L412.65,151.406 L417.756,148.993 L391.963,90.847" id="Fill-83" fill="#1E9B7D" sketch:type="MSShapeGroup"></path>
                    <path d="M459.116,170.731 L454.047,171.841 L441.735,206.131 L447.363,205.037 L459.116,170.731" id="Fill-84" fill="#1E9B7D" sketch:type="MSShapeGroup"></path>
                    <path d="M453.645,172.92 L459.116,170.731 L417.756,148.993 L412.557,151.406 L453.645,172.92" id="Fill-85" fill="#27B899" sketch:type="MSShapeGroup"></path>
                    <path d="M453.645,172.92 L459.116,170.731 L417.756,148.993 L412.557,151.406 L453.645,172.92" id="Fill-86" fill="#1E9B7D" sketch:type="MSShapeGroup"></path>
                    <path d="M369.576,227.5 L376.244,213.892 L369.576,165.738 L385.102,145.67 L410.469,133.2 C410.469,133.2 415.115,132.851 415.325,136.63 L419.489,134.388 C420.951,134.904 421.952,135.874 422.417,138.394 C422.822,140.594 421.216,141.67 421.216,141.67 L422.831,140.906 C427.396,144.565 419.338,156.432 412.557,160.627 C413.413,163.256 393.397,227.5 393.397,227.5 L369.576,227.5" id="Fill-87" fill="#F1EBDF" sketch:type="MSShapeGroup"></path>
                    <path d="M369.576,227.5 L370.025,227.72 L376.76,213.975 L370.1,165.877 L385.427,146.068 L410.69,133.649 L410.469,133.2 L410.507,133.699 L410.57,133.696 L410.774,133.692 C411.253,133.689 412.288,133.756 413.16,134.168 C413.597,134.372 413.991,134.655 414.285,135.047 C414.578,135.44 414.784,135.946 414.825,136.658 L414.869,137.443 L419.726,134.828 L419.489,134.388 L419.322,134.859 C419.997,135.099 420.51,135.414 420.935,135.949 C421.358,136.485 421.702,137.274 421.925,138.484 C421.965,138.702 421.982,138.904 421.982,139.091 C421.981,139.832 421.716,140.366 421.447,140.732 C421.312,140.914 421.177,141.051 421.079,141.138 L420.966,141.234 L420.939,141.253 L420.937,141.255 L421.429,142.122 L423.045,141.358 L422.831,140.906 L422.518,141.296 C423.308,141.935 423.66,142.834 423.667,144.028 C423.678,146.355 422.179,149.631 419.981,152.678 C417.789,155.731 414.914,158.583 412.294,160.201 L411.959,160.408 L412.081,160.782 L412.185,160.748 L412.078,160.769 L412.081,160.782 L412.185,160.748 L412.078,160.769 L412.083,160.872 C412.085,161.115 412.016,161.645 411.877,162.357 C411.358,165.05 409.909,170.485 408.033,177.088 C405.219,186.997 401.44,199.565 398.365,209.653 C396.828,214.697 395.466,219.122 394.489,222.286 C394,223.867 393.608,225.134 393.338,226.005 C393.067,226.876 392.92,227.35 392.919,227.351 L393.397,227.5 L393.397,227 L369.576,227 L369.576,227.5 L370.025,227.72 L369.576,227.5 L369.576,228 L393.765,228 L393.874,227.649 C393.874,227.648 398.671,212.252 403.469,196.222 C405.868,188.207 408.267,180.034 410.067,173.546 C410.968,170.301 411.718,167.478 412.245,165.302 C412.508,164.213 412.716,163.287 412.859,162.547 C413.001,161.802 413.081,161.26 413.083,160.872 C413.082,160.735 413.078,160.619 413.032,160.472 L412.557,160.627 L412.82,161.052 C415.599,159.33 418.529,156.409 420.793,153.261 C423.049,150.107 424.655,146.753 424.667,144.028 C424.673,142.638 424.213,141.367 423.144,140.516 L422.9,140.32 L421.002,141.218 L421.216,141.67 L421.494,142.085 C421.526,142.063 421.886,141.82 422.251,141.327 C422.615,140.836 422.983,140.081 422.982,139.091 C422.982,138.842 422.959,138.579 422.908,138.303 C422.667,136.993 422.278,136.037 421.719,135.33 C421.162,134.621 420.443,134.192 419.655,133.916 L419.446,133.843 L415.088,136.19 L415.325,136.63 L415.824,136.602 C415.776,135.719 415.499,134.998 415.085,134.447 C414.461,133.618 413.57,133.188 412.759,132.958 C411.946,132.728 411.193,132.692 410.774,132.692 C410.568,132.692 410.442,132.701 410.432,132.702 L410.335,132.709 L384.778,145.273 L369.051,165.598 L375.727,213.809 L368.774,228 L369.576,228 L369.576,227.5" id="Fill-88" fill="#89796F" sketch:type="MSShapeGroup"></path>
                    <path d="M421.849,141.519 C423.975,136.486 419.679,134.348 419.679,134.348 L395.782,146.503 L381.685,162.481" id="Fill-89" fill="#F1EBDF" sketch:type="MSShapeGroup"></path>
                    <path d="M422.309,141.713 C422.754,140.662 422.94,139.708 422.939,138.859 C422.941,137.138 422.174,135.88 421.424,135.085 C420.672,134.285 419.935,133.918 419.902,133.901 L419.677,133.788 L395.47,146.1 L381.31,162.15 L382.06,162.811 L396.094,146.905 L419.906,134.794 L419.679,134.348 L419.456,134.796 L419.474,134.805 C419.592,134.867 420.227,135.229 420.812,135.899 C421.4,136.573 421.938,137.53 421.94,138.859 C421.939,139.562 421.787,140.378 421.388,141.324 L422.309,141.713" id="Fill-90" fill="#89796F" sketch:type="MSShapeGroup"></path>
                    <path d="M409.274,162.636 C427.739,149.611 424.167,141.351 422.54,140.822 L401.809,153.892 L389.288,167.808" id="Fill-91" fill="#F1EBDF" sketch:type="MSShapeGroup"></path>
                    <path d="M409.562,163.045 C415.561,158.813 419.27,155.068 421.488,151.891 C423.706,148.716 424.435,146.102 424.435,144.157 C424.435,143.092 424.217,142.231 423.902,141.592 C423.579,140.955 423.194,140.523 422.695,140.346 L422.472,140.274 L401.484,153.506 L388.916,167.474 L389.659,168.143 L402.134,154.278 L422.807,141.245 L422.54,140.822 L422.386,141.298 C422.462,141.308 422.774,141.547 423.005,142.034 C423.244,142.517 423.435,143.23 423.435,144.157 C423.435,145.849 422.799,148.268 420.669,151.319 C418.539,154.369 414.917,158.044 408.986,162.228 L409.562,163.045" id="Fill-92" fill="#89796F" sketch:type="MSShapeGroup"></path>
                    <path d="M409.931,170.999 C425.949,158.652 420.002,153.914 420.002,153.914 L408.133,161.492 L397.404,174.391" id="Fill-93" fill="#F1EBDF" sketch:type="MSShapeGroup"></path>
                    <path d="M410.237,171.395 C414.86,167.831 417.683,164.885 419.364,162.468 C421.043,160.053 421.582,158.153 421.581,156.717 C421.583,154.575 420.38,153.57 420.313,153.523 L420.034,153.3 L407.799,161.112 L397.019,174.071 L397.788,174.711 L408.468,161.871 L420.271,154.335 L420.002,153.914 L419.69,154.305 L419.726,154.259 L419.688,154.304 L419.69,154.305 L419.726,154.259 L419.688,154.304 C419.741,154.354 420.58,155.08 420.581,156.717 C420.581,157.898 420.141,159.596 418.543,161.897 C416.946,164.196 414.195,167.082 409.626,170.603 L410.237,171.395" id="Fill-94" fill="#89796F" sketch:type="MSShapeGroup"></path>
                    <path d="M948.11,435.822 L905,374.434 L905,329 L908.745,329 C911.188,329 913,326.931 913,324.488 L913,324.399 C913,321.956 911.188,321 908.745,321 L879.296,321 C876.853,321 874,321.956 874,324.399 L874,324.488 C874,326.931 876.853,329 879.296,329 L882,329 L882,374 L882.459,374 L839.635,435.36 C835.4,441.459 839.736,449.632 847.161,449.698 L940.565,450.447 C948.076,450.514 952.41,441.981 948.11,435.822" id="Fill-95" fill="#F6F8F8" sketch:type="MSShapeGroup"></path>
                    <path d="M948.11,435.822 L949.747,434.673 L907,373.802 L907,331 L908.745,331 C910.54,331.005 912.161,330.218 913.259,329.016 C914.365,327.815 914.999,326.205 915,324.488 L915,324.399 C915.001,323.543 914.838,322.712 914.481,321.971 C913.952,320.849 912.987,320.035 911.969,319.6 C910.943,319.154 909.855,319.003 908.745,319 L879.296,319 C877.815,319.009 876.232,319.261 874.789,320.019 C874.073,320.403 873.381,320.934 872.85,321.684 C872.317,322.427 871.993,323.398 872,324.399 L872,324.488 C871.999,325.492 872.296,326.425 872.745,327.212 C873.426,328.398 874.426,329.302 875.552,329.952 C876.683,330.595 877.956,330.995 879.296,331 L880,331 L880,376 L882.459,376 L882.459,374 L880.819,372.855 L837.995,434.216 L837.992,434.219 C836.616,436.197 835.969,438.417 835.971,440.562 C835.973,443.459 837.121,446.214 839.092,448.269 C841.058,450.325 843.895,451.674 847.143,451.698 L940.549,452.447 L940.653,452.447 C943.921,452.453 946.77,451.07 948.723,448.974 C950.683,446.879 951.809,444.086 951.812,441.163 C951.814,438.965 951.158,436.691 949.75,434.678 L949.737,434.659 L949.747,434.673 L948.11,435.822 L946.47,436.967 C947.404,438.31 947.809,439.744 947.812,441.163 C947.814,443.044 947.069,444.892 945.804,446.239 C944.532,447.584 942.801,448.441 940.653,448.447 L940.581,448.447 L847.177,447.698 C845.01,447.674 843.252,446.817 841.977,445.498 C840.708,444.178 839.969,442.39 839.971,440.562 C839.974,439.204 840.364,437.822 841.278,436.501 L886.293,372 L884,372 L884,327 L879.296,327 C878.639,327.014 877.663,326.664 876.989,326.104 C876.648,325.83 876.383,325.519 876.222,325.235 C876.061,324.948 876,324.706 876,324.488 L876,324.399 C876.007,324.178 876.04,324.113 876.118,323.99 C876.229,323.817 876.594,323.526 877.2,323.322 C877.794,323.114 878.576,322.998 879.296,323 L908.745,323 C909.225,323 909.64,323.049 909.957,323.128 C910.443,323.251 910.666,323.417 910.774,323.546 C910.832,323.615 910.877,323.687 910.92,323.814 C910.962,323.94 911,324.125 911,324.399 L911,324.488 C911.001,325.214 910.729,325.86 910.318,326.304 C909.899,326.748 909.393,326.995 908.745,327 L903,327 L903,375.066 L946.473,436.972 L946.47,436.967 L948.11,435.822" id="Fill-96" fill="#8DBAC6" sketch:type="MSShapeGroup"></path>
                    <path d="M909.433,359.632 L879.608,369.247 C877.473,369.936 875.093,368.477 874.291,365.99 L874.262,365.899 C873.46,363.411 874.54,360.837 876.675,360.149 L906.5,350.534 C908.634,349.846 911.015,351.304 911.816,353.792 L911.846,353.883 C912.648,356.37 911.567,358.944 909.433,359.632" id="Fill-97" fill="#F1EBDF" sketch:type="MSShapeGroup"></path>
                    <path d="M909.433,359.632 L909.279,359.156 L879.454,368.772 C879.147,368.87 878.835,368.918 878.522,368.918 C876.976,368.925 875.374,367.727 874.767,365.836 L874.738,365.745 C874.574,365.237 874.497,364.727 874.497,364.236 C874.497,363.384 874.728,362.589 875.135,361.957 C875.543,361.324 876.118,360.854 876.828,360.625 L906.653,351.01 C906.96,350.911 907.272,350.863 907.585,350.863 C909.13,350.856 910.732,352.054 911.34,353.945 L911.37,354.036 C911.533,354.544 911.61,355.054 911.61,355.545 C911.61,356.397 911.379,357.192 910.972,357.824 C910.564,358.457 909.989,358.927 909.279,359.156 L909.586,360.108 C910.532,359.804 911.296,359.171 911.813,358.365 C912.331,357.558 912.61,356.577 912.61,355.545 C912.61,354.949 912.517,354.336 912.322,353.729 L912.292,353.638 C911.565,351.388 909.644,349.87 907.585,349.863 C907.171,349.863 906.754,349.926 906.346,350.058 L876.521,359.673 C875.575,359.977 874.811,360.61 874.294,361.416 C873.776,362.223 873.497,363.204 873.497,364.236 C873.497,364.832 873.59,365.445 873.786,366.052 L873.815,366.143 C874.542,368.393 876.463,369.911 878.522,369.918 C878.936,369.918 879.353,369.855 879.761,369.723 L909.586,360.108 L909.433,359.632" id="Fill-98" fill="#89796F" sketch:type="MSShapeGroup"></path>
                    <path d="M912.565,368.378 L880.274,378.789 C877.963,379.534 875.44,378.121 874.638,375.634 L874.609,375.543 C873.807,373.056 875.03,370.435 877.341,369.69 L909.632,359.28 C911.943,358.535 914.467,359.948 915.268,362.435 L915.298,362.526 C916.1,365.013 914.876,367.634 912.565,368.378" id="Fill-99" fill="#F1EBDF" sketch:type="MSShapeGroup"></path>
                    <path d="M912.565,368.378 L912.412,367.903 L880.121,378.313 C879.753,378.431 879.38,378.487 879.011,378.488 C877.339,378.49 875.706,377.322 875.114,375.481 L875.084,375.39 C874.934,374.922 874.863,374.451 874.862,373.992 C874.865,372.239 875.891,370.681 877.494,370.166 L909.785,359.756 C910.153,359.638 910.526,359.581 910.895,359.581 C912.566,359.579 914.2,360.747 914.792,362.588 L914.822,362.68 C914.973,363.147 915.044,363.618 915.044,364.077 C915.041,365.829 914.015,367.388 912.412,367.903 L912.719,368.854 C914.776,368.189 916.046,366.214 916.043,364.077 C916.044,363.515 915.957,362.94 915.774,362.372 L915.744,362.281 C915.023,360.048 913.032,358.584 910.895,358.581 C910.424,358.581 909.947,358.653 909.479,358.804 L877.188,369.215 C875.13,369.88 873.86,371.854 873.863,373.992 C873.862,374.554 873.95,375.13 874.133,375.697 L874.162,375.787 C874.883,378.021 876.874,379.485 879.011,379.488 C879.482,379.488 879.959,379.416 880.428,379.265 L912.719,368.854 L912.565,368.378" id="Fill-100" fill="#89796F" sketch:type="MSShapeGroup"></path>
                    <path d="M914.937,378.212 L894.788,384.614 C892.207,385.434 889.451,384.007 888.631,381.427 L888.601,381.333 C887.781,378.753 889.208,375.996 891.789,375.177 L911.938,368.774 C914.518,367.954 917.275,369.381 918.094,371.961 L918.124,372.056 C918.944,374.636 917.517,377.392 914.937,378.212" id="Fill-101" fill="#F1EBDF" sketch:type="MSShapeGroup"></path>
                    <path d="M914.937,378.212 L914.786,377.735 L894.636,384.138 C894.192,384.279 893.743,384.346 893.302,384.346 C891.436,384.345 889.702,383.149 889.108,381.276 L889.078,381.181 C888.937,380.737 888.87,380.288 888.87,379.847 C888.87,377.981 890.066,376.247 891.94,375.653 L912.09,369.25 C912.534,369.109 912.983,369.042 913.424,369.042 C915.289,369.043 917.023,370.239 917.618,372.112 L917.648,372.207 C917.789,372.651 917.856,373.1 917.856,373.541 C917.855,375.406 916.659,377.141 914.786,377.735 L914.937,378.212 L915.089,378.688 C917.387,377.957 918.856,375.832 918.856,373.541 C918.856,372.999 918.773,372.447 918.601,371.904 L918.571,371.81 C917.839,369.511 915.715,368.042 913.424,368.042 C912.881,368.042 912.33,368.125 911.787,368.297 L891.637,374.7 C889.338,375.431 887.869,377.556 887.87,379.847 C887.87,380.389 887.952,380.941 888.125,381.484 L888.155,381.579 C888.886,383.877 891.01,385.346 893.302,385.346 C893.844,385.346 894.396,385.263 894.939,385.091 L915.089,378.688 L914.937,378.212" id="Fill-102" fill="#89796F" sketch:type="MSShapeGroup"></path>
                    <path d="M919.159,384.944 L903.962,389.773 C902.016,390.391 899.938,389.315 899.319,387.369 L899.297,387.298 C898.678,385.352 899.754,383.273 901.7,382.655 L916.897,377.826 C918.843,377.208 920.921,378.284 921.54,380.23 L921.562,380.301 C922.181,382.247 921.105,384.326 919.159,384.944" id="Fill-103" fill="#F1EBDF" sketch:type="MSShapeGroup"></path>
                    <path d="M919.159,384.944 L919.007,384.468 L903.811,389.296 C903.488,389.399 903.162,389.447 902.841,389.447 C901.487,389.447 900.227,388.579 899.796,387.218 L899.773,387.146 C899.67,386.823 899.622,386.498 899.622,386.177 C899.622,384.823 900.49,383.563 901.852,383.132 L917.048,378.303 C917.371,378.2 917.697,378.152 918.017,378.152 C919.372,378.152 920.631,379.02 921.063,380.381 L921.086,380.453 C921.188,380.776 921.237,381.101 921.237,381.422 C921.237,382.776 920.368,384.036 919.007,384.468 L919.31,385.421 C921.096,384.852 922.237,383.202 922.237,381.422 C922.237,381 922.173,380.572 922.039,380.15 L922.016,380.078 C921.447,378.292 919.798,377.151 918.017,377.152 C917.596,377.152 917.167,377.216 916.745,377.35 L901.549,382.179 C899.762,382.747 898.621,384.397 898.622,386.177 C898.622,386.599 898.686,387.028 898.82,387.449 L898.843,387.521 C899.411,389.307 901.061,390.448 902.841,390.447 C903.263,390.447 903.692,390.383 904.113,390.249 L919.31,385.421 L919.159,384.944" id="Fill-104" fill="#89796F" sketch:type="MSShapeGroup"></path>
                    <path d="M165.809,522.094 L169.04,520.608 L207.527,604.338 L204.296,605.822 L165.809,522.094" id="Fill-105" fill="#3B97D2" sketch:type="MSShapeGroup"></path>
                    <path d="M165.809,522.094 L169.039,520.609 L165.062,516.211 L165.809,522.094" id="Fill-106" fill="#F9A818" sketch:type="MSShapeGroup"></path>
                    <path d="M245.82,525.943 L242.749,524.151 L196.313,603.747 L199.384,605.538 L245.82,525.943" id="Fill-107" fill="#F67A67" sketch:type="MSShapeGroup"></path>
                    <path d="M245.821,525.943 L242.749,524.152 L247.136,520.159 L245.821,525.943" id="Fill-108" fill="#F9A818" sketch:type="MSShapeGroup"></path>
                    <path d="M186.038,515.498 L189.523,514.794 L207.782,605.118 L204.296,605.822 L186.038,515.498" id="Fill-109" fill="#6AD9C3" sketch:type="MSShapeGroup"></path>
                    <path d="M186.037,515.497 L189.523,514.794 L186.659,509.601 L186.037,515.497" id="Fill-110" fill="#F9A818" sketch:type="MSShapeGroup"></path>
                    <path d="M225.795,516.214 L229.253,517.043 L207.754,606.652 L204.296,605.822 L225.795,516.214" id="Fill-111" fill="#FBBB54" sketch:type="MSShapeGroup"></path>
                    <path d="M225.795,516.214 L229.252,517.042 L228.843,511.128 L225.795,516.214" id="Fill-112" fill="#F9A818" sketch:type="MSShapeGroup"></path>
                    <path d="M175.518,549.074 L234.927,549.074 L234.927,553.523 L175.518,553.523 L175.518,549.074 Z" id="Fill-113" fill="#5994CE" sketch:type="MSShapeGroup"></path>
                    <path d="M190.767,605.623 L219.679,605.623 L219.679,610.071 L190.767,610.071 L190.767,605.623 Z" id="Fill-114" fill="#5994CE" sketch:type="MSShapeGroup"></path>
                    <path d="M179.965,553.523 L195.215,610.072 L190.767,610.072 L175.517,553.523 L179.965,553.523" id="Fill-115" fill="#5994CE" sketch:type="MSShapeGroup"></path>
                    <path d="M230.48,553.523 L215.23,610.072 L219.678,610.072 L234.927,553.523 L230.48,553.523" id="Fill-116" fill="#5994CE" sketch:type="MSShapeGroup"></path>
                    <path d="M183.594,552.657 L198.111,606.488 L195.739,606.488 L181.223,552.657 L183.594,552.657" id="Fill-117" fill="#5994CE" sketch:type="MSShapeGroup"></path>
                    <path d="M188.84,552.657 L203.357,606.488 L200.986,606.488 L186.47,552.657 L188.84,552.657" id="Fill-118" fill="#5994CE" sketch:type="MSShapeGroup"></path>
                    <path d="M194.088,552.657 L208.605,606.488 L206.232,606.488 L191.716,552.657 L194.088,552.657" id="Fill-119" fill="#5994CE" sketch:type="MSShapeGroup"></path>
                    <path d="M199.334,552.657 L213.851,606.488 L211.479,606.488 L196.962,552.657 L199.334,552.657" id="Fill-120" fill="#5994CE" sketch:type="MSShapeGroup"></path>
                    <path d="M204.581,552.657 L217.952,602.239 L216.806,606.488 L216.727,606.488 L202.21,552.657 L204.581,552.657" id="Fill-121" fill="#5994CE" sketch:type="MSShapeGroup"></path>
                    <path d="M209.828,552.657 L220.575,592.508 L219.39,596.906 L207.457,552.657 L209.828,552.657" id="Fill-122" fill="#5994CE" sketch:type="MSShapeGroup"></path>
                    <path d="M215.075,552.657 L223.199,582.781 L222.014,587.178 L212.704,552.657 L215.075,552.657" id="Fill-123" fill="#5994CE" sketch:type="MSShapeGroup"></path>
                    <path d="M220.323,552.657 L225.823,573.051 L224.637,577.45 L217.952,552.657 L220.323,552.657" id="Fill-124" fill="#5994CE" sketch:type="MSShapeGroup"></path>
                    <path d="M225.57,552.657 L228.445,563.322 L227.259,567.72 L223.199,552.657 L225.57,552.657" id="Fill-125" fill="#5994CE" sketch:type="MSShapeGroup"></path>
                    <path d="M230.819,552.657 L231.069,553.595 L229.883,557.993 L228.445,552.657 L230.819,552.657" id="Fill-126" fill="#5994CE" sketch:type="MSShapeGroup"></path>
                    <path d="M226.074,552.657 L211.557,606.488 L213.929,606.488 L228.445,552.657 L226.074,552.657" id="Fill-127" fill="#5994CE" sketch:type="MSShapeGroup"></path>
                    <path d="M220.827,552.657 L206.31,606.488 L208.683,606.488 L223.199,552.657 L220.827,552.657" id="Fill-128" fill="#5994CE" sketch:type="MSShapeGroup"></path>
                    <path d="M215.579,552.657 L201.064,606.488 L203.436,606.488 L217.952,552.657 L215.579,552.657" id="Fill-129" fill="#5994CE" sketch:type="MSShapeGroup"></path>
                    <path d="M210.334,552.657 L195.817,606.488 L198.188,606.488 L212.705,552.657 L210.334,552.657" id="Fill-130" fill="#5994CE" sketch:type="MSShapeGroup"></path>
                    <path d="M205.086,552.657 L192.108,600.783 L193.294,605.181 L207.457,552.657 L205.086,552.657" id="Fill-131" fill="#5994CE" sketch:type="MSShapeGroup"></path>
                    <path d="M199.838,552.657 L189.484,591.055 L190.67,595.451 L202.21,552.657 L199.838,552.657" id="Fill-132" fill="#5994CE" sketch:type="MSShapeGroup"></path>
                    <path d="M194.593,552.657 L186.862,581.325 L188.047,585.722 L196.964,552.657 L194.593,552.657" id="Fill-133" fill="#5994CE" sketch:type="MSShapeGroup"></path>
                    <path d="M189.345,552.657 L184.239,571.597 L185.424,575.993 L191.717,552.657 L189.345,552.657" id="Fill-134" fill="#5994CE" sketch:type="MSShapeGroup"></path>
                    <path d="M184.099,552.657 L181.615,561.868 L182.8,566.265 L186.47,552.657 L184.099,552.657" id="Fill-135" fill="#5994CE" sketch:type="MSShapeGroup"></path>
                    <path d="M180.176,556.536 L181.223,552.657 L179.131,552.657 L180.176,556.536" id="Fill-136" fill="#5994CE" sketch:type="MSShapeGroup"></path>
                    <path d="M370,574.459 L370,574.459 C375.654,574.459 380.238,579.042 380.238,584.696 C380.238,590.352 375.654,594.936 370,594.936 L370,590.147 C373.009,590.147 375.449,587.706 375.449,584.696 C375.449,581.687 373.009,579.248 370,579.248 L370,574.459 L370,574.459 Z M367.203,571.217 C367.322,572.404 367.332,573.614 367.244,574.836 C368.12,574.59 369.046,574.459 370,574.459 L370,579.248 C366.989,579.248 364.551,581.687 364.551,584.696 C364.551,587.706 366.989,590.147 370,590.147 L370,594.936 C366.378,594.936 363.197,593.057 361.377,590.22 C354.758,599.84 343.458,607.469 331.971,607.469 C313.298,607.469 295.123,587.319 296.737,571.217 L367.203,571.217 L367.203,571.217 Z" id="Fill-137" fill="#3F3F3F" sketch:type="MSShapeGroup"></path>
                    <path d="M373.897,604.148 C369.512,606.539 364.366,608.549 358.662,610.072 L306.728,610.072 C301.022,608.549 295.877,606.539 291.493,604.148 L373.897,604.148" id="Fill-138" fill="#3F3F3F" sketch:type="MSShapeGroup"></path>
                    <g id="Group-157" transform="translate(720.000000, 523.000000)">
                        <mask id="mask-6" sketch:name="Clip 140" fill="white">
                            <use xlink:href="#path-5"></use>
                        </mask>
                        <g id="Clip-140"></g>
                        <path d="M123.654,62.938 C124.273,64.641 122.086,66.208 118.536,66.584 L118.545,66.583 C122.088,66.206 124.273,64.641 123.654,62.938 M29.979,12.272 L11.468,13.726 C7.511,14.034 5.107,15.798 6.097,17.668 L33.679,69.801 C34.697,71.563 38.433,72.766 42.21,72.568 L42.336,72.561 L80.378,69.577 L78.394,65.829 L41.053,68.763 L13.893,17.435 L32.042,16.016 C31.167,15.477 30.513,14.851 30.149,14.168 C30.084,14.046 30.03,13.924 29.986,13.803 C29.796,13.278 29.801,12.763 29.979,12.272 M87.402,7.77 L87.214,7.781 L87.402,7.77 M87.407,7.77 L87.405,7.77 C87.628,7.758 87.852,7.752 88.074,7.749 C91.204,7.72 94.192,8.622 95.513,9.98 L95.648,10.127 C94.32,8.589 90.886,7.588 87.407,7.77" id="Fill-139" fill="#64798A" sketch:type="MSShapeGroup" mask="url(#mask-6)"></path>
                        <path d="M87.402,7.77 L87.214,7.781 L87.026,7.794 L68.521,9.249 C69.334,9.775 69.947,10.369 70.288,11.02 C70.345,11.126 70.393,11.233 70.434,11.339 C70.655,11.912 70.644,12.475 70.426,13.001 L88.575,11.582 L115.732,62.903 L78.394,65.829 L80.378,69.577 L118.536,66.584 C122.086,66.208 124.273,64.641 123.654,62.938 L123.537,62.677 L95.989,10.617 C95.929,10.503 95.858,10.39 95.77,10.278 L95.648,10.127 L95.513,9.98 C94.192,8.622 91.204,7.72 88.074,7.749 C87.852,7.752 87.628,7.758 87.405,7.77 L87.402,7.77" id="Fill-141" fill="#55697A" sketch:type="MSShapeGroup" mask="url(#mask-6)"></path>
                        <path d="M42.733,61.121 L106.427,56.129 L106.935,57.088 L43.243,62.089 L42.733,61.121 M40.749,57.373 L104.443,52.381 L104.959,53.348 L41.259,58.341 L40.749,57.373 M38.767,53.633 L102.464,48.632 L102.974,49.6 L39.274,54.593 L38.767,53.633 M36.783,49.885 L100.479,44.884 L100.99,45.852 L37.296,50.844 L36.783,49.885 M34.804,46.137 L98.495,41.136 L99.005,42.104 L35.311,47.096 L34.804,46.137 M32.819,42.388 L96.51,37.388 L97.027,38.355 L33.327,43.348 L32.819,42.388 M30.835,38.64 L94.535,33.647 L95.042,34.607 L31.342,39.6 L30.835,38.64 M28.85,34.892 L92.55,29.899 L93.058,30.859 L29.358,35.852 L28.85,34.892 M26.872,31.144 L90.566,26.151 L91.073,27.111 L27.382,32.111 L26.872,31.144 M24.887,27.396 L88.581,22.403 L89.089,23.362 L25.398,28.363 L24.887,27.396 M22.903,23.647 L86.597,18.655 L87.113,19.622 L23.413,24.615 L22.903,23.647 M88.575,11.582 L70.426,13.001 C69.731,14.726 66.905,16.102 62.937,16.41 L42.397,18.022 C42.209,18.037 42.021,18.049 41.833,18.059 C41.656,18.068 41.479,18.075 41.303,18.08 C38.322,18.161 35.406,17.611 33.262,16.655 C33.117,16.591 32.976,16.525 32.839,16.456 C32.557,16.317 32.291,16.17 32.042,16.016 L13.893,17.435 L41.053,68.763 L78.394,65.829 L115.732,62.903 L88.575,11.582" id="Fill-142" fill="#F4F9F8" sketch:type="MSShapeGroup" mask="url(#mask-6)"></path>
                        <path d="M45.867,3.31 C45.69,3.319 45.514,3.33 45.337,3.344 L45.269,3.35 C39.888,3.779 36.625,6.192 37.975,8.736 L42.861,8.354 L42.782,8.175 C42.345,6.966 43.958,5.853 46.546,5.646 L46.801,5.63 L47.047,5.619 C49.303,5.554 51.49,6.205 52.399,7.189 C52.515,7.315 52.61,7.445 52.682,7.581 L57.579,7.199 C56.27,4.731 51.099,3.036 45.867,3.31" id="Fill-143" fill="#3A4A5D" sketch:type="MSShapeGroup" mask="url(#mask-6)"></path>
                        <path d="M46.801,5.63 L46.801,5.63 L46.546,5.646 C43.958,5.853 42.345,6.966 42.782,8.175 L42.861,8.354 L52.682,7.581 C52.61,7.445 52.515,7.315 52.399,7.189 C51.49,6.205 49.302,5.554 47.047,5.619 L46.801,5.63" id="Fill-144" fill="#55AEBF" sketch:type="MSShapeGroup" mask="url(#mask-6)"></path>
                        <path d="M58.594,7.13 C58.409,7.139 58.224,7.151 58.04,7.166 L57.579,7.199 L52.682,7.581 L42.861,8.354 L37.975,8.736 L37.506,8.777 C33.47,9.089 30.614,10.509 29.979,12.272 C29.801,12.763 29.796,13.278 29.986,13.803 C30.03,13.924 30.084,14.046 30.149,14.168 C30.513,14.851 31.167,15.477 32.042,16.016 C32.291,16.17 32.557,16.317 32.839,16.456 C32.976,16.525 33.117,16.591 33.262,16.655 C35.406,17.611 38.322,18.161 41.303,18.08 C41.479,18.075 41.656,18.068 41.833,18.059 C42.021,18.049 42.209,18.037 42.397,18.022 L62.937,16.41 C66.905,16.102 69.731,14.726 70.426,13.001 C70.644,12.475 70.655,11.912 70.434,11.339 C70.393,11.233 70.345,11.126 70.288,11.02 C69.947,10.369 69.334,9.775 68.521,9.249 C66.257,7.797 62.447,6.928 58.594,7.13" id="Fill-145" fill="#3A4A5D" sketch:type="MSShapeGroup" mask="url(#mask-6)"></path>
                        <path d="M86.597,18.655 L22.903,23.647 L23.413,24.615 L87.113,19.622 L86.597,18.655" id="Fill-146" fill="#B6C8CF" sketch:type="MSShapeGroup" mask="url(#mask-6)"></path>
                        <path d="M88.581,22.403 L24.887,27.396 L25.398,28.363 L89.089,23.362 L88.581,22.403" id="Fill-147" fill="#B6C8CF" sketch:type="MSShapeGroup" mask="url(#mask-6)"></path>
                        <path d="M90.566,26.151 L26.872,31.144 L27.382,32.111 L91.073,27.111 L90.566,26.151" id="Fill-148" fill="#B6C8CF" sketch:type="MSShapeGroup" mask="url(#mask-6)"></path>
                        <path d="M92.55,29.899 L28.85,34.892 L29.358,35.852 L93.058,30.859 L92.55,29.899" id="Fill-149" fill="#B6C8CF" sketch:type="MSShapeGroup" mask="url(#mask-6)"></path>
                        <path d="M94.535,33.647 L30.835,38.64 L31.342,39.6 L95.042,34.607 L94.535,33.647" id="Fill-150" fill="#B6C8CF" sketch:type="MSShapeGroup" mask="url(#mask-6)"></path>
                        <path d="M96.51,37.388 L32.819,42.388 L33.327,43.348 L97.027,38.355 L96.51,37.388" id="Fill-151" fill="#B6C8CF" sketch:type="MSShapeGroup" mask="url(#mask-6)"></path>
                        <path d="M98.495,41.136 L34.804,46.137 L35.311,47.096 L99.005,42.104 L98.495,41.136" id="Fill-152" fill="#B6C8CF" sketch:type="MSShapeGroup" mask="url(#mask-6)"></path>
                        <path d="M100.479,44.884 L36.783,49.885 L37.296,50.844 L100.99,45.852 L100.479,44.884" id="Fill-153" fill="#B6C8CF" sketch:type="MSShapeGroup" mask="url(#mask-6)"></path>
                        <path d="M102.464,48.632 L38.767,53.633 L39.274,54.593 L102.974,49.6 L102.464,48.632" id="Fill-154" fill="#B6C8CF" sketch:type="MSShapeGroup" mask="url(#mask-6)"></path>
                        <path d="M104.443,52.381 L40.749,57.373 L41.259,58.341 L104.959,53.348 L104.443,52.381" id="Fill-155" fill="#B6C8CF" sketch:type="MSShapeGroup" mask="url(#mask-6)"></path>
                        <path d="M106.427,56.129 L42.733,61.121 L43.243,62.089 L106.935,57.088 L106.427,56.129" id="Fill-156" fill="#B6C8CF" sketch:type="MSShapeGroup" mask="url(#mask-6)"></path>
                    </g>
                    <path d="M700.799,577.243 C700.729,575.439 699.425,575.367 699.425,575.367 C695.941,575.095 696.292,574.925 695.079,574.212 C681.77,566.403 659.174,572.636 654.117,577.692 C653.075,577.214 649.093,577.044 649.093,577.044 C649.093,577.044 645.178,577.237 644.14,577.726 C639.041,572.711 616.394,566.666 603.151,574.586 C601.943,575.306 602.296,575.473 598.813,575.774 C598.813,575.774 597.512,575.86 597.457,577.665 C597.404,579.379 597.397,579.06 597.402,579.349 C597.408,579.642 597.56,580.047 598.724,580.022 C599.945,579.998 600.585,580.043 600.561,581.788 C600.539,583.531 598.968,603.843 613.918,607.393 C627.47,610.61 639.43,605.916 644.141,585.514 C644.141,585.514 644.791,581.005 649.173,581.112 C653.556,581.219 654.182,585.48 654.182,585.48 C659.062,605.846 671.061,610.441 684.584,607.109 C699.507,603.432 697.765,583.136 697.728,581.394 C697.69,579.649 698.327,579.598 699.551,579.613 C700.711,579.626 700.862,579.222 700.866,578.93 C700.869,578.638 700.866,578.959 700.799,577.243 L700.799,577.243 Z M642.216,586.133 C639.545,604.386 628.46,607.801 619.735,607.509 C611.008,607.217 603.098,601.211 602.046,589.259 C600.995,577.301 606.709,572.42 617.061,572.449 C622.176,572.463 644.263,572.14 642.216,586.133 L642.216,586.133 Z M696.304,588.876 C695.353,600.838 687.494,606.909 678.77,607.275 C670.047,607.639 658.935,604.316 656.112,586.085 C653.949,572.111 676.037,572.249 681.152,572.193 C691.502,572.075 697.255,576.912 696.304,588.876 L696.304,588.876 Z" id="Fill-158" fill="#3F3F3F" sketch:type="MSShapeGroup"></path>
                    <path d="M893.405,533.619 L893.318,508.965 C895.56,508.392 897.222,506.373 897.214,503.953 C897.203,501.095 894.881,498.788 892.022,498.799 L870.723,498.874 C867.864,498.884 865.556,501.207 865.566,504.065 C865.576,506.849 867.785,509.092 870.542,509.198 L870.627,533.377 C859.191,537.826 851.091,548.931 851.137,561.934 C851.197,578.803 864.919,592.427 881.789,592.367 C898.654,592.309 912.282,578.586 912.222,561.718 C912.177,549.044 904.417,538.201 893.405,533.619" id="Fill-159" fill="#FFFFFF" sketch:type="MSShapeGroup"></path>
                    <path d="M893.905,533.617 L893.818,508.963 L893.318,508.965 L893.442,509.45 C895.892,508.824 897.712,506.619 897.713,503.971 L897.713,503.964 L897.379,503.963 L897.713,503.983 L897.713,503.964 L897.379,503.963 L897.713,503.983 L897.714,503.968 L897.714,503.951 C897.702,500.824 895.166,498.299 892.041,498.298 L892.007,498.299 L892.022,498.799 L892.021,498.299 L870.721,498.374 C867.593,498.385 865.066,500.921 865.066,504.046 L865.067,504.094 L865.566,504.065 L865.066,504.066 C865.078,507.121 867.501,509.582 870.522,509.698 L870.542,509.198 L870.042,509.2 L870.127,533.379 L870.627,533.377 L870.446,532.911 C858.855,537.419 850.637,548.656 850.637,561.824 L850.637,561.941 L850.637,561.936 C850.698,579.043 864.583,592.867 881.678,592.867 L881.789,592.867 C898.895,592.807 912.722,578.921 912.722,561.829 L912.722,561.716 C912.676,548.835 904.789,537.813 893.597,533.157 L893.213,534.08 C904.044,538.588 911.678,549.253 911.722,561.72 L912.222,561.718 L911.722,561.715 L911.722,561.829 C911.722,578.37 898.34,591.81 881.787,591.867 L881.678,591.868 C865.134,591.868 851.695,578.488 851.637,561.932 L851.637,561.824 C851.636,549.081 859.59,538.207 870.808,533.843 L871.128,533.719 L871.04,508.717 L870.561,508.698 C868.068,508.602 866.075,506.576 866.066,504.063 L866.066,504.047 L866.065,504.036 L865.742,504.054 L866.066,504.053 L866.065,504.036 L865.742,504.054 L866.066,504.053 L866.066,504.046 C866.066,501.472 868.147,499.383 870.725,499.374 L892.031,499.298 L892.038,499.298 L892.032,499.124 L892.033,499.298 L892.038,499.298 L892.032,499.124 L892.033,499.298 L892.041,499.298 C894.616,499.298 896.705,501.378 896.714,503.955 L897.214,503.953 L896.715,503.923 L896.713,503.971 C896.714,506.148 895.216,507.963 893.194,508.481 L892.817,508.577 L892.905,533.62 L893.905,533.617" id="Fill-160" fill="#A3A3A3" sketch:type="MSShapeGroup"></path>
                    <path d="M855.484,561.918 C855.535,576.385 867.304,588.072 881.773,588.02 C896.239,587.97 907.926,576.2 907.875,561.733 L855.484,561.918" id="Fill-161" fill="#FF755A" sketch:type="MSShapeGroup"></path>
                    <path d="M814.345,572.3 L809.436,572.318 L809.416,566.721 C809.416,566.493 809.375,566.276 809.347,566.053 L809.902,566.051 C811.957,566.044 813.617,564.373 813.61,562.315 C813.602,560.261 811.931,558.601 809.876,558.608 L788.93,558.682 C786.874,558.69 785.214,560.362 785.221,562.416 C785.229,564.474 786.901,566.132 788.956,566.125 L789.511,566.123 C789.484,566.346 789.443,566.564 789.444,566.792 L789.464,572.389 L784.556,572.406 C781.483,572.417 779.001,574.915 779.012,577.988 L779.045,587.42 C779.056,590.492 781.556,592.973 784.629,592.962 L814.417,592.857 C817.491,592.846 819.973,590.348 819.963,587.275 L819.93,577.844 C819.918,574.771 817.418,572.289 814.345,572.3" id="Fill-162" fill="#FFFFFF" sketch:type="MSShapeGroup"></path>
                    <path d="M886.752,603.565 L743.631,604.07 L743.595,593.694 L886.715,593.189 L886.752,603.565" id="Fill-163" fill="#565656" sketch:type="MSShapeGroup"></path>
                    <path d="M860.501,598.765 L854.039,598.787 L853.46,435.304 L859.923,435.281 L860.501,598.765" id="Fill-164" fill="#565656" sketch:type="MSShapeGroup"></path>
                    <path d="M856.501,520.464 L762.918,520.794 L762.904,516.879 L856.488,516.549 L856.501,520.464" id="Fill-165" fill="#565656" sketch:type="MSShapeGroup"></path>
                    <path d="M817.458,578.983 L817.484,586.153 C817.492,588.487 815.306,590.389 812.605,590.399 L786.423,590.492 C783.723,590.501 781.525,588.614 781.516,586.281 L781.491,579.11" id="Fill-166" fill="#FBB15D" sketch:type="MSShapeGroup"></path>
                    <path d="M798.933,582.38 C798.952,582.384 799.343,582.481 799.879,582.481 C800.427,582.48 801.142,582.383 801.75,581.929 C802.362,581.476 802.797,580.658 802.791,579.425 C802.791,578.964 802.734,578.442 802.61,577.848 C802.443,577.035 802.12,576.482 801.737,576.092 C801.157,575.51 800.52,575.279 800.098,574.879 C799.883,574.68 799.706,574.447 799.568,574.088 C799.432,573.73 799.341,573.238 799.338,572.543 L799.281,556.157 L798.556,556.159 L798.614,572.546 C798.617,573.552 798.792,574.251 799.092,574.771 C799.547,575.554 800.227,575.849 800.739,576.205 C801.256,576.571 801.67,576.943 801.901,577.996 C802.017,578.551 802.067,579.024 802.067,579.425 C802.06,580.506 801.725,581.035 801.315,581.35 C800.901,581.665 800.341,581.758 799.879,581.757 C799.655,581.757 799.457,581.736 799.318,581.715 L799.156,581.688 L799.106,581.677 L798.933,582.38" id="Fill-167" fill="#9A9A9A" sketch:type="MSShapeGroup"></path>
                    <path d="M799.105,556.019 C800.921,556.091 804.489,555.117 804.57,550.675 C804.648,546.231 800.612,544.671 799.693,543.761 C798.777,542.849 797.32,540.458 797.32,540.458 C797.32,540.458 786.454,555.501 799.105,556.019" id="Fill-168" fill="#FF755A" sketch:type="MSShapeGroup"></path>
                    <path d="M799.526,556.019 C800.65,556.064 802.859,555.46 802.909,552.71 C802.958,549.958 800.459,548.991 799.89,548.428 C799.322,547.864 798.42,546.383 798.42,546.383 C798.42,546.383 791.691,555.697 799.526,556.019" id="Fill-169" fill="#F0E160" sketch:type="MSShapeGroup"></path>
                    <path d="M482.513,235.547 L472,249.959 L472,207.604 L482.513,235.547" id="Fill-170" fill="#AAAAAA" sketch:type="MSShapeGroup"></path>
                    <path d="M470.731,316.339 L529.53,254.122 L512.291,224.959 L537.936,209.26 L510.369,173.791 L470.907,245.065 L470.731,316.339" id="Fill-171" fill="#E2E2E2" sketch:type="MSShapeGroup"></path>
                    <path d="M925,403 L904,403" id="Fill-172" fill="#F6F8F8" sketch:type="MSShapeGroup"></path>
                    <path d="M904,401 L925,401 L925,405 L904,405 L904,401 Z" id="Fill-173" fill="#8DBAC6" sketch:type="MSShapeGroup"></path>
                    <path d="M929,412 L908,412" id="Fill-174" fill="#F6F8F8" sketch:type="MSShapeGroup"></path>
                    <path d="M908,410 L929,410 L929,414 L908,414 L908,410 Z" id="Fill-175" fill="#8DBAC6" sketch:type="MSShapeGroup"></path>
                    <path d="M936,420 L915,420" id="Fill-176" fill="#F6F8F8" sketch:type="MSShapeGroup"></path>
                    <path d="M915,418 L936,418 L936,422 L915,422 L915,418 Z" id="Fill-177" fill="#8DBAC6" sketch:type="MSShapeGroup"></path>
                    <path d="M511.177,123.049 L521.709,112.517 L511.177,123.049" id="Fill-178" fill="#FFFFFF" sketch:type="MSShapeGroup"></path>
                    <path d="M511.442,123.314 C514.952,119.804 518.463,116.293 521.974,112.782 C522.316,112.44 521.786,111.91 521.443,112.252 C517.933,115.763 514.422,119.274 510.911,122.784 C510.569,123.126 511.099,123.657 511.442,123.314" id="Fill-179" fill="#BFBFBF" sketch:type="MSShapeGroup"></path>
                    <path d="M510.082,128.521 L526.407,112.196 L510.082,128.521" id="Fill-180" fill="#FFFFFF" sketch:type="MSShapeGroup"></path>
                    <path d="M510.347,128.786 C515.789,123.344 521.23,117.903 526.672,112.462 C527.014,112.119 526.484,111.589 526.141,111.931 C520.7,117.372 515.259,122.814 509.817,128.255 C509.475,128.598 510.005,129.128 510.347,128.786" id="Fill-181" fill="#BFBFBF" sketch:type="MSShapeGroup"></path>
                    <path d="M538.401,110.359 C537.263,111.209 536.079,112.004 534.856,112.737 L533.446,126.808 C534.574,125.234 535.447,123.541 536.118,121.8 L538.401,110.359" id="Fill-182" fill="#FFFFFF" sketch:type="MSShapeGroup"></path>
                    <path d="M536.439,96.938 L534.856,112.737 C536.079,112.004 537.263,111.209 538.401,110.359 L540.274,100.976 C540.274,99.116 538.623,97.801 536.439,96.938" id="Fill-183" fill="#D9D9D9" sketch:type="MSShapeGroup"></path>
                    <path d="M511.191,123.425 C510.903,123.425 510.647,123.049 510.911,122.784 C514.422,119.274 517.933,115.763 521.443,112.252 C521.521,112.174 521.609,112.142 521.694,112.142 C521.982,112.142 522.238,112.518 521.974,112.782 C518.463,116.293 514.952,119.804 511.442,123.314 C511.364,123.392 511.276,123.425 511.191,123.425 M510.097,128.896 C509.809,128.896 509.553,128.52 509.817,128.255 C515.259,122.814 520.7,117.372 526.141,111.931 C526.219,111.853 526.307,111.82 526.392,111.82 C526.68,111.82 526.936,112.197 526.672,112.462 C521.23,117.903 515.789,123.344 510.347,128.786 C510.269,128.864 510.182,128.896 510.097,128.896 M499.039,116 C497.896,116 496.983,115.237 496.75,114.164 C496.744,114.127 496.61,113.379 496.61,113.01 C496.61,109.089 499.815,105.911 503.755,105.911 C507.696,105.911 510.91,109.089 510.91,113.01 C510.91,113.098 510.877,114.325 510.746,114.621 C510.374,115.457 509.465,116 508.492,116 L499.039,116 M528.989,95.615 L470.837,96.827 C470.921,96.834 471.005,96.841 471.089,96.847 L471.089,105.013 C470.937,105.044 470.784,105.081 470.63,105.123 L470.63,105.164 C470.63,105.164 470.935,105.158 471.076,105.158 C471.185,105.154 471.294,105.152 471.4,105.152 C484.412,105.152 479.944,135.956 508.877,135.956 C509.785,136 510.667,136.022 511.521,136.022 C523.031,136.022 529.669,132.08 533.446,126.808 L536.439,96.938 C534.111,96.019 531.176,95.615 528.989,95.615" id="Fill-184" fill="#FCFBF9" sketch:type="MSShapeGroup"></path>
                    <path d="M470.837,96.827 L470.542,96.833 L470.63,105.123 C470.784,105.081 470.937,105.044 471.089,105.013 L471.089,96.847 C471.005,96.841 470.921,96.834 470.837,96.827" id="Fill-185" fill="#D9D9D9" sketch:type="MSShapeGroup"></path>
                    <path d="M503.755,105.911 C499.815,105.911 496.61,109.089 496.61,113.01 C496.61,113.379 496.744,114.127 496.75,114.164 C496.983,115.237 497.896,116 499.039,116 L508.492,116 C509.465,116 510.374,115.457 510.746,114.621 C510.877,114.325 510.91,113.098 510.91,113.01 C510.91,109.089 507.696,105.911 503.755,105.911" id="Fill-186" fill="#D9D9D9" sketch:type="MSShapeGroup"></path>
                    <path d="M521.694,112.142 C521.609,112.142 521.521,112.174 521.443,112.252 C517.933,115.763 514.422,119.274 510.911,122.784 C510.647,123.049 510.903,123.425 511.191,123.425 C511.276,123.425 511.364,123.392 511.442,123.314 C514.952,119.804 518.463,116.293 521.974,112.782 C522.238,112.518 521.982,112.142 521.694,112.142" id="Fill-187" fill="#F2F2F2" sketch:type="MSShapeGroup"></path>
                    <path d="M526.392,111.82 C526.307,111.82 526.219,111.853 526.141,111.931 C520.7,117.372 515.259,122.814 509.817,128.255 C509.553,128.52 509.809,128.896 510.097,128.896 C510.182,128.896 510.269,128.864 510.347,128.786 C515.789,123.344 521.23,117.903 526.672,112.462 C526.936,112.197 526.68,111.82 526.392,111.82" id="Fill-188" fill="#F2F2F2" sketch:type="MSShapeGroup"></path>
                    <path d="M539.874,101.633 C503.902,98.273 474.656,101.22 470.94,101.625 C470.725,101.649 470.542,101.479 470.542,101.262 L470.542,96.833 L539.909,95.615 C540.11,95.615 540.274,95.778 540.274,95.98 L540.274,101.271 C540.274,101.485 540.088,101.653 539.874,101.633" id="Fill-189" fill="#32485E" sketch:type="MSShapeGroup"></path>
                    <path d="M528.984,96.115 C532.944,96.117 536.165,99.033 536.165,102.617 L536.165,118.156 C536.165,126.695 527.344,135.771 510.996,135.771 C510.295,135.771 509.578,135.753 508.84,135.718 C491.812,135.718 486.531,124.77 482.288,115.973 C479.374,109.932 476.857,104.714 471.313,104.714 C471.22,104.714 471.126,104.716 471.042,104.718 L471.042,97.323 L528.984,96.115 M528.979,95.615 L470.542,96.833 L470.542,105.226 C470.542,105.226 470.847,105.22 470.988,105.22 C471.097,105.216 471.206,105.214 471.313,105.214 C484.342,105.214 479.868,136.218 508.84,136.218 C509.569,136.253 510.289,136.271 510.996,136.271 C526.604,136.271 536.665,127.699 536.665,118.156 L536.665,102.617 C536.665,98.75 533.224,95.615 528.979,95.615" id="Fill-190" fill="#32485E" sketch:type="MSShapeGroup"></path>
                    <path d="M881.754,277.589 C876.987,277.589 873.123,281.453 873.123,286.219 C873.123,290.986 876.987,294.85 881.754,294.85 C886.52,294.85 890.384,290.986 890.384,286.219 C890.384,281.453 886.52,277.589 881.754,277.589" id="Fill-191" fill="#BBD6DD" sketch:type="MSShapeGroup"></path>
                    <path d="M905.819,252.964 C899.016,252.964 893.5,258.48 893.5,265.284 C893.5,272.087 899.016,277.603 905.819,277.603 C912.623,277.603 918.138,272.087 918.138,265.284 C918.138,258.48 912.623,252.964 905.819,252.964" id="Fill-192" fill="#BBD6DD" sketch:type="MSShapeGroup"></path>
                    <path d="M898.825,294.589 C896.228,294.589 894.123,296.694 894.123,299.29 C894.123,301.887 896.228,303.992 898.825,303.992 C901.421,303.992 903.526,301.887 903.526,299.29 C903.526,296.694 901.421,294.589 898.825,294.589" id="Fill-193" fill="#BBD6DD" sketch:type="MSShapeGroup"></path>
                </g>
            </g>
        </g>
    </g>
</svg>